<svg width="276" height="140" viewBox="0 0 276 140" fill="none" xmlns="http://www.w3.org/2000/svg">
<mask id="path-1-inside-1_1130_202" fill="white">
<path d="M0 138C0 106.355 10.8756 75.6721 30.8045 51.0912C50.7335 26.5104 78.5049 9.52542 109.466 2.98224C140.426 -3.56091 172.695 0.73526 200.866 15.1509C229.036 29.5666 251.396 53.2259 264.2 82.1646L138 138H0Z"/>
</mask>
<path d="M0 138C0 106.355 10.8756 75.6721 30.8045 51.0912C50.7335 26.5104 78.5049 9.52542 109.466 2.98224C140.426 -3.56091 172.695 0.73526 200.866 15.1509C229.036 29.5666 251.396 53.2259 264.2 82.1646L138 138H0Z" fill="#ECF4FF" stroke="#20305E" stroke-width="2" mask="url(#path-1-inside-1_1130_202)"/>
<mask id="path-2-inside-2_1130_202" fill="white">
<path d="M0 138C0 119.878 3.56949 101.933 10.5046 85.1897C17.4398 68.4467 27.6048 53.2337 40.4193 40.4193C53.2337 27.6048 68.4468 17.4398 85.1897 10.5046C101.933 3.56949 119.878 0 138 0C156.122 0 174.067 3.56949 190.81 10.5046C207.553 17.4398 222.766 27.6048 235.581 40.4193C248.395 53.2337 258.56 68.4468 265.495 85.1897C272.431 101.933 276 119.878 276 138L138 138L0 138Z"/>
</mask>
<path d="M0 138C0 119.878 3.56949 101.933 10.5046 85.1897C17.4398 68.4467 27.6048 53.2337 40.4193 40.4193C53.2337 27.6048 68.4468 17.4398 85.1897 10.5046C101.933 3.56949 119.878 0 138 0C156.122 0 174.067 3.56949 190.81 10.5046C207.553 17.4398 222.766 27.6048 235.581 40.4193C248.395 53.2337 258.56 68.4468 265.495 85.1897C272.431 101.933 276 119.878 276 138L138 138L0 138Z" stroke="#20305E" stroke-width="2" mask="url(#path-2-inside-2_1130_202)"/>
<circle cx="138" cy="138" r="5" fill="#20305E"/>
</svg>
